<svg xmlns="http://www.w3.org/2000/svg" width="1600" height="900" viewBox="0 0 1600 900" role="img" aria-label="Event cover">
  <defs>
    <linearGradient id="bg" x1="0" y1="0" x2="1" y2="1">
      <stop offset="0" stop-color="#1f6feb" stop-opacity="0.7"/>
      <stop offset="1" stop-color="#00d4ff" stop-opacity="0.25"/>
    </linearGradient>
    <linearGradient id="road" x1="0" y1="0" x2="0" y2="1">
      <stop offset="0" stop-color="#0f141b" stop-opacity="0.6"/>
      <stop offset="1" stop-color="#0a0f14" stop-opacity="0.9"/>
    </linearGradient>
  </defs>

  <rect width="1600" height="900" fill="#0a0f14"/>
  <rect width="1600" height="900" fill="url(#bg)"/>

  <circle cx="260" cy="240" r="220" fill="#ffffff" opacity="0.06"/>
  <circle cx="1340" cy="160" r="260" fill="#ffffff" opacity="0.05"/>

  <path d="M0 720 C 420 620, 860 850, 1600 690 L1600 900 L0 900 Z" fill="url(#road)"/>

  <!-- Minimal car silhouette -->
  <path d="M520 610 C560 540, 700 520, 820 520 C950 520, 1040 540, 1120 590 C1150 610, 1160 650, 1140 680 C1110 730, 980 740, 820 740 C660 740, 560 720, 520 680 C500 660, 500 640, 520 610 Z" fill="#0f141b" opacity="0.85"/>
  <path d="M650 595 C690 555, 760 545, 820 545 C900 545, 980 560, 1030 600" fill="none" stroke="#e9f1ff" stroke-opacity="0.25" stroke-width="10" stroke-linecap="round"/>

  <circle cx="650" cy="715" r="54" fill="#0a0f14" opacity="0.9"/>
  <circle cx="650" cy="715" r="34" fill="#e9f1ff" opacity="0.15"/>
  <circle cx="1040" cy="715" r="54" fill="#0a0f14" opacity="0.9"/>
  <circle cx="1040" cy="715" r="34" fill="#e9f1ff" opacity="0.15"/>

  <text x="90" y="120" font-family="Segoe UI, Arial, sans-serif" font-size="48" fill="#e9f1ff" opacity="0.9" letter-spacing="3">CARVEHICLE • EVENT</text>
  <text x="90" y="175" font-family="Segoe UI, Arial, sans-serif" font-size="22" fill="#e9f1ff" opacity="0.7" letter-spacing="2">Launch / Promotion / Showcase</text>
</svg>
